<svg width="27" height="24" viewBox="0 0 27 24" fill="currentcolor" xmlns="http://www.w3.org/2000/svg" id="first">
  <path d="M12 6H9V9H12V6Z"/>
  <path d="M15 6H12V9H15V6Z"/>
  <path d="M9 9H6V12H9V9Z"/>
  <path d="M9 12H6V15H9V12Z"/>
  <path d="M9 15H6V18H9V15Z"/>
  <path d="M18 6H15V9H18V6Z"/>
  <path d="M12 18H9V21H12V18Z"/>
  <path d="M15 21H12V24H15V21Z"/>
  <path d="M18 24H15V27H18V24Z"/>
  <path d="M27 6H30V9H27V6Z"/>
  <path d="M24 6H27V9H24V6Z"/>
  <path d="M30 9H33V12H30V9Z" />
  <path d="M30 12H33V15H30V12Z"/>
  <path d="M30 15H33V18H30V15Z"/>
  <path d="M21 6H24V9H21V6Z"/>
  <path d="M27 18H30V21H27V18Z"/>
  <path d="M24 21H27V24H24V21Z"/>
  <path d="M21 24H24V27H21V24Z"/>
  <path d="M21 9H18V12H21V9Z"/>
  <path d="M21 27H18V30H21V27Z"/>
</svg>
